<?xml version="1.0" encoding="UTF-8" standalone="no"?>
<svg width="28px" height="62px" viewBox="0 0 28 62" version="1.1" xmlns="http://www.w3.org/2000/svg" xmlns:xlink="http://www.w3.org/1999/xlink">
    <!-- Generator: Sketch 3.7.2 (28276) - http://www.bohemiancoding.com/sketch -->
    <title>email</title>
    <desc>Created with Sketch.</desc>
    <defs></defs>
    <g id="Page-1" stroke="none" stroke-width="1" fill="none" fill-rule="evenodd">
        <g id="email">
            <g id="hover" transform="translate(0.000000, 34.000000)" fill="#1CDFFF">
                <path d="M14,0 C6.24804688,0 0,6.2890625 0,14 C0,21.7519531 6.24804688,28 14,28 C21.7109375,28 28,21.7519531 28,14 C28,6.2890625 21.7109375,0 14,0 L14,0 L14,0 Z M22.75,19.3183594 C22.75,19.9335938 22.2578125,20.4121094 21.6425781,20.4121094 L6.35742188,20.4121094 C5.7421875,20.4121094 5.25,19.9335938 5.25,19.3183594 L5.25,10.9511719 L14,17.5 L22.75,10.9511719 L22.75,19.3183594 L22.75,19.3183594 Z M14,15.2304688 L5.25,8.68164062 C5.25,8.06640625 5.7421875,7.58789062 6.35742188,7.58789062 L21.6425781,7.58789062 C22.2578125,7.58789062 22.75,8.06640625 22.75,8.68164062 L14,15.2304688 L14,15.2304688 Z" id="email"></path>
            </g>
            <g id="default" fill="#2C2C2C">
                <path d="M14,0 C6.24804688,0 0,6.2890625 0,14 C0,21.7519531 6.24804688,28 14,28 C21.7109375,28 28,21.7519531 28,14 C28,6.2890625 21.7109375,0 14,0 L14,0 L14,0 Z M22.75,19.3183594 C22.75,19.9335938 22.2578125,20.4121094 21.6425781,20.4121094 L6.35742188,20.4121094 C5.7421875,20.4121094 5.25,19.9335938 5.25,19.3183594 L5.25,10.9511719 L14,17.5 L22.75,10.9511719 L22.75,19.3183594 L22.75,19.3183594 Z M14,15.2304688 L5.25,8.68164062 C5.25,8.06640625 5.7421875,7.58789062 6.35742188,7.58789062 L21.6425781,7.58789062 C22.2578125,7.58789062 22.75,8.06640625 22.75,8.68164062 L14,15.2304688 L14,15.2304688 Z" id="email"></path>
            </g>
        </g>
    </g>
</svg>