<?xml version="1.0" encoding="UTF-8"?>
<svg width="28px" height="62px" viewBox="0 0 28 62" version="1.1" xmlns="http://www.w3.org/2000/svg" xmlns:xlink="http://www.w3.org/1999/xlink">
    <!-- Generator: Sketch 41.2 (35397) - http://www.bohemiancoding.com/sketch -->
    <title>facebook</title>
    <desc>Created with Sketch.</desc>
    <defs></defs>
    <g id="Page-1" stroke="none" stroke-width="1" fill="none" fill-rule="evenodd">
        <g id="facebook">
            <g id="Shape" fill="#000000">
                <path d="M26.45475,0 L1.54525,0 C0.69125,0 0,0.69125 0,1.54525 L0,26.45475 C0,27.30875 0.69125,28 1.54525,28 L14.9555,28 L14.9555,17.157 L11.305,17.157 L11.305,12.9325 L14.9555,12.9325 L14.9555,9.81225 C14.9555,6.19675 17.164,4.22975 20.391,4.22975 C21.93625,4.22975 23.2645,4.34175 23.65125,4.39425 L23.65125,8.17425 L21.41125,8.17425 C19.66125,8.17425 19.32,9.01425 19.32,10.23925 L19.32,12.93425 L23.5025,12.93425 L22.96,17.16925 L19.32,17.16925 L19.32,28 L26.45475,28 C27.30875,28 28,27.30875 28,26.45475 L28,1.54525 C28,0.69125 27.30875,0 26.45475,0"></path>
            </g>
            <g id="facebook-copy" transform="translate(0.000000, 34.000000)" fill="#1CDFFF">
                <path d="M26.45475,0 L1.54525,0 C0.69125,0 0,0.69125 0,1.54525 L0,26.45475 C0,27.30875 0.69125,28 1.54525,28 L14.9555,28 L14.9555,17.157 L11.305,17.157 L11.305,12.9325 L14.9555,12.9325 L14.9555,9.81225 C14.9555,6.19675 17.164,4.22975 20.391,4.22975 C21.93625,4.22975 23.2645,4.34175 23.65125,4.39425 L23.65125,8.17425 L21.41125,8.17425 C19.66125,8.17425 19.32,9.01425 19.32,10.23925 L19.32,12.93425 L23.5025,12.93425 L22.96,17.16925 L19.32,17.16925 L19.32,28 L26.45475,28 C27.30875,28 28,27.30875 28,26.45475 L28,1.54525 C28,0.69125 27.30875,0 26.45475,0" id="Shape"></path>
            </g>
        </g>
    </g>
</svg>