<?xml version="1.0" encoding="UTF-8"?>
<svg width="28px" height="62px" viewBox="0 0 28 62" version="1.1" xmlns="http://www.w3.org/2000/svg" xmlns:xlink="http://www.w3.org/1999/xlink">
    <!-- Generator: Sketch 41.2 (35397) - http://www.bohemiancoding.com/sketch -->
    <title>opencollective</title>
    <desc>Created with Sketch.</desc>
    <defs></defs>
    <g id="Page-1" stroke="none" stroke-width="1" fill="none" fill-rule="evenodd">
        <g id="opencollective">
            <path d="M21.7206917,2.31951031 C19.5074793,0.85365494 16.8534305,0 14,0 C6.2680135,0 0,6.2680135 0,14 C0,21.7319865 6.2680135,28 14,28 C16.8534305,28 19.5074793,27.1463451 21.7206917,25.6804897 L17.6215633,21.5813612 C16.5249845,22.106134 15.2968103,22.4 14,22.4 C9.3608081,22.4 5.6,18.6391919 5.6,14 C5.6,9.3608081 9.3608081,5.6 14,5.6 C15.2968103,5.6 16.5249845,5.89386604 17.6215633,6.41863876 L21.7206917,2.31951031 Z M25.6804897,6.27930829 C27.1463451,8.49252073 28,11.1465695 28,14 C28,16.8534305 27.1463451,19.5074793 25.6804897,21.7206917 L21.5813612,17.6215633 C22.106134,16.5249845 22.4,15.2968103 22.4,14 C22.4,12.7031897 22.106134,11.4750155 21.5813612,10.3784367 L25.6804897,6.27930829 Z" id="Combined-Shape" fill="#2C2C2C"></path>
            <path d="M21.7206917,36.3195103 C19.5074793,34.8536549 16.8534305,34 14,34 C6.2680135,34 0,40.2680135 0,48 C0,55.7319865 6.2680135,62 14,62 C16.8534305,62 19.5074793,61.1463451 21.7206917,59.6804897 L17.6215633,55.5813612 C16.5249845,56.106134 15.2968103,56.4 14,56.4 C9.3608081,56.4 5.6,52.6391919 5.6,48 C5.6,43.3608081 9.3608081,39.6 14,39.6 C15.2968103,39.6 16.5249845,39.893866 17.6215633,40.4186388 L21.7206917,36.3195103 Z M25.6804897,40.2793083 C27.1463451,42.4925207 28,45.1465695 28,48 C28,50.8534305 27.1463451,53.5074793 25.6804897,55.7206917 L21.5813612,51.6215633 C22.106134,50.5249845 22.4,49.2968103 22.4,48 C22.4,46.7031897 22.106134,45.4750155 21.5813612,44.3784367 L25.6804897,40.2793083 Z" id="Combined-Shape-Copy-3" fill="#1CDFFF"></path>
        </g>
    </g>
</svg>