<?xml version="1.0" encoding="UTF-8"?>
<svg width="28px" height="62px" viewBox="0 0 28 62" version="1.1" xmlns="http://www.w3.org/2000/svg" xmlns:xlink="http://www.w3.org/1999/xlink">
    <!-- Generator: Sketch 41.2 (35397) - http://www.bohemiancoding.com/sketch -->
    <title>slack</title>
    <desc>Created with Sketch.</desc>
    <defs></defs>
    <g id="Page-1" stroke="none" stroke-width="1" fill="none" fill-rule="evenodd">
        <g id="slack">
            <g id="hover" transform="translate(0.000000, 34.000000)" fill="#1CDFFF">
                <polygon id="Shape" points="11.5255 12.8275 12.733 16.42725 16.47275 15.17425 15.26525 11.58675 11.5255 12.84675"></polygon>
                <path d="M21.9625,16.3975 L20.14775,17.00475 L20.77775,18.8825 C21.0315,19.642 20.62025,20.4645 19.86075,20.72 C19.68575,20.7725 19.52825,20.79875 19.35325,20.7935 C18.75825,20.776 18.21575,20.398 18.00575,19.803 L17.37575,17.927 L13.63075,19.18 L14.26075,21.056 C14.50575,21.81725 14.10325,22.63975 13.33325,22.8935 C13.15825,22.9495 13.00075,22.97225 12.82575,22.96875 C12.23075,22.95125 11.68825,22.57325 11.47825,21.97825 L10.84825,20.08825 L9.02825,20.70075 C8.85325,20.75325 8.69575,20.77075 8.52075,20.77075 C7.92575,20.75325 7.38325,20.36825 7.17325,19.77325 C6.91075,19.00325 7.33075,18.18075 8.08325,17.93575 L9.90325,17.32325 L8.75,13.72 L6.9405,14.3325 C6.776,14.3885 6.608,14.41125 6.44175,14.40775 C5.86425,14.39025 5.30425,14.014 5.11175,13.419 C4.86675,12.66125 5.26925,11.83875 6.03925,11.5815 L7.85925,10.976 L7.22925,9.1035 C6.98425,8.3405 7.38675,7.518 8.15675,7.266 C8.92675,7.00875 9.74925,7.4235 9.99425,8.1795 L10.62425,10.0555 L14.35,8.8025 L13.72,6.93 C13.475,6.1775 13.8775,5.355 14.6405,5.0925 C15.40175,4.8475 16.226,5.25 16.478,6.0165 L17.108,7.9065 L18.92275,7.3115 C19.68225,7.056 20.50475,7.469 20.76025,8.2215 C21.014,8.9845 20.60275,9.807 19.845,10.059 L18.0285,10.6715 L19.236,14.27125 L21.0455,13.66925 C21.80675,13.42425 22.62925,13.82675 22.883,14.59675 C23.1385,15.36675 22.7255,16.18925 21.973,16.43425 L21.9625,16.3975 Z M26.8275,10.15 C23.94,0.532 19.7715,-1.715 10.15,1.1725 C0.532,4.06 -1.715,8.225 1.1725,17.85 C4.06,27.46975 8.225,29.715 17.85,26.8275 C27.46975,23.94 29.715,19.775 26.8275,10.15 L26.8275,10.15 Z" id="Shape"></path>
            </g>
            <g id="Group" fill="#2C2C2C">
                <polygon id="Shape" points="11.5255 12.8275 12.733 16.42725 16.47275 15.17425 15.26525 11.58675 11.5255 12.84675"></polygon>
                <path d="M21.9625,16.3975 L20.14775,17.00475 L20.77775,18.8825 C21.0315,19.642 20.62025,20.4645 19.86075,20.72 C19.68575,20.7725 19.52825,20.79875 19.35325,20.7935 C18.75825,20.776 18.21575,20.398 18.00575,19.803 L17.37575,17.927 L13.63075,19.18 L14.26075,21.056 C14.50575,21.81725 14.10325,22.63975 13.33325,22.8935 C13.15825,22.9495 13.00075,22.97225 12.82575,22.96875 C12.23075,22.95125 11.68825,22.57325 11.47825,21.97825 L10.84825,20.08825 L9.02825,20.70075 C8.85325,20.75325 8.69575,20.77075 8.52075,20.77075 C7.92575,20.75325 7.38325,20.36825 7.17325,19.77325 C6.91075,19.00325 7.33075,18.18075 8.08325,17.93575 L9.90325,17.32325 L8.75,13.72 L6.9405,14.3325 C6.776,14.3885 6.608,14.41125 6.44175,14.40775 C5.86425,14.39025 5.30425,14.014 5.11175,13.419 C4.86675,12.66125 5.26925,11.83875 6.03925,11.5815 L7.85925,10.976 L7.22925,9.1035 C6.98425,8.3405 7.38675,7.518 8.15675,7.266 C8.92675,7.00875 9.74925,7.4235 9.99425,8.1795 L10.62425,10.0555 L14.35,8.8025 L13.72,6.93 C13.475,6.1775 13.8775,5.355 14.6405,5.0925 C15.40175,4.8475 16.226,5.25 16.478,6.0165 L17.108,7.9065 L18.92275,7.3115 C19.68225,7.056 20.50475,7.469 20.76025,8.2215 C21.014,8.9845 20.60275,9.807 19.845,10.059 L18.0285,10.6715 L19.236,14.27125 L21.0455,13.66925 C21.80675,13.42425 22.62925,13.82675 22.883,14.59675 C23.1385,15.36675 22.7255,16.18925 21.973,16.43425 L21.9625,16.3975 Z M26.8275,10.15 C23.94,0.532 19.7715,-1.715 10.15,1.1725 C0.532,4.06 -1.715,8.225 1.1725,17.85 C4.06,27.46975 8.225,29.715 17.85,26.8275 C27.46975,23.94 29.715,19.775 26.8275,10.15 L26.8275,10.15 Z" id="Shape"></path>
            </g>
        </g>
    </g>
</svg>